HIERARCHY
ROOT Hips
{
 OFFSET 0.000000 0.000000 0.000000
 CHANNELS 6 Xposition Yposition Zposition Yrotation Xrotation Zrotation
 JOINT Chest
 {
  OFFSET 0.000000 9.585900 0.002600
  CHANNELS 3 Yrotation Xrotation Zrotation
  JOINT Chest2
  {
   OFFSET 0.000000 9.601200 -0.005300
   CHANNELS 3 Yrotation Xrotation Zrotation
   JOINT Chest3
   {
    OFFSET 0.000000 9.561800 0.000000
    CHANNELS 3 Yrotation Xrotation Zrotation
    JOINT Chest4
    {
     OFFSET 0.000000 9.552100 0.000000
     CHANNELS 3 Yrotation Xrotation Zrotation
     JOINT Neck
     {
      OFFSET 0.000000 14.453000 0.000000
      CHANNELS 3 Yrotation Xrotation Zrotation
      JOINT Head
      {
       OFFSET 0.000000 8.936500 -0.011300
       CHANNELS 3 Yrotation Xrotation Zrotation
       End Site
       {
        OFFSET 0.000000 17.073600 -0.006000
       }
      }
     }
     JOINT RightCollar
     {
      OFFSET -2.921100 9.558500 0.000000
      CHANNELS 3 Yrotation Xrotation Zrotation
      JOINT RightShoulder
      {
       OFFSET -13.519700 0.000000 0.000000
       CHANNELS 3 Yrotation Xrotation Zrotation
       JOINT RightElbow
       {
        OFFSET 0.000000 -29.696600 0.000000
        CHANNELS 3 Yrotation Xrotation Zrotation
        JOINT RightWrist
        {
         OFFSET 0.000000 -24.004700 0.000000
         CHANNELS 3 Yrotation Xrotation Zrotation
         End Site
         {
          OFFSET 0.000000 -17.728500 0.000000
         }
        }
       }
      }
     }
     JOINT LeftCollar
     {
      OFFSET 2.921100 9.558500 0.000000
      CHANNELS 3 Yrotation Xrotation Zrotation
      JOINT LeftShoulder
      {
       OFFSET 13.519700 0.000000 0.000000
       CHANNELS 3 Yrotation Xrotation Zrotation
       JOINT LeftElbow
       {
        OFFSET 0.000000 -29.696600 0.000000
        CHANNELS 3 Yrotation Xrotation Zrotation
        JOINT LeftWrist
        {
         OFFSET 0.000000 -24.004700 0.000000
         CHANNELS 3 Yrotation Xrotation Zrotation
         End Site
         {
          OFFSET 0.000000 -17.728500 0.000000
         }
        }
       }
      }
     }
    }
   }
  }
 }
 JOINT RightHip
 {
  OFFSET -7.771700 -0.012900 -0.001300
  CHANNELS 3 Yrotation Xrotation Zrotation
  JOINT RightKnee
  {
   OFFSET 0.000000 -40.869800 0.001200
   CHANNELS 3 Yrotation Xrotation Zrotation
   JOINT RightAnkle
   {
    OFFSET 0.000000 -39.717900 0.002100
    CHANNELS 3 Yrotation Xrotation Zrotation
    JOINT RightToe
    {
     OFFSET 0.000000 -4.965400 11.033500
     CHANNELS 3 Yrotation Xrotation Zrotation
     End Site
     {
      OFFSET 0.000000 -1.423100 5.872300
     }
    }
   }
  }
 }
 JOINT LeftHip
 {
  OFFSET 7.771700 -0.012900 -0.001300
  CHANNELS 3 Yrotation Xrotation Zrotation
  JOINT LeftKnee
  {
   OFFSET 0.000000 -40.869800 0.001200
   CHANNELS 3 Yrotation Xrotation Zrotation
   JOINT LeftAnkle
   {
    OFFSET 0.000000 -39.717900 0.002100
    CHANNELS 3 Yrotation Xrotation Zrotation
    JOINT LeftToe
    {
     OFFSET 0.000000 -4.965400 11.033500
     CHANNELS 3 Yrotation Xrotation Zrotation
     End Site
     {
      OFFSET 0.000000 -1.423100 5.872300
     }
    }
   }
  }
 }
}
MOTION
Frames: 8
Frame Time: 0.008333
0.000000 85.388000 0.000000 0.000000 -5.767877 0.000000 0.000000 11.653817 0.000000 0.000000 -5.885947 0.000000 0.000000 -0.000000 0.000000 0.000000 -0.000000 0.000000 0.000000 12.528835 0.000000 0.000000 0.711642 0.000000 0.000000 -0.000000 0.000000 0.000000 0.000000 -90.000000 0.000000 -2.309062 0.000000 0.000000 2.309062 0.000000 0.000000 -0.000000 0.000000 0.000000 -0.000000 90.000000 0.000000 -2.309062 0.000000 0.000000 2.309062 0.000000 0.000000 8.520406 0.000000 0.000000 1.905762 0.000000 -0.000000 -4.658285 0.000000 0.000000 -0.000000 0.000000 0.000000 8.520406 0.000000 0.000000 1.905762 0.000000 -0.000000 -4.658285 0.000000 0.000000 -0.000000 0.000000
-35.506682 57.921698 12.759209 177.791505 -51.143113 -3.532936 2.970862 21.817766 2.912730 1.580044 12.409312 1.496868 1.975183 15.584224 1.970037 1.566106 12.438643 1.479286 -2.244382 16.632628 1.563791 -4.701881 -4.807000 3.676931 1.503123 5.361071 0.160441 -4.012846 -14.221232 -8.751684 -63.831897 -51.424688 117.449900 0.078248 16.142900 -24.852001 -8.444188 3.292713 -0.690991 3.067845 -14.813196 11.041477 98.745566 -65.499135 -135.373534 -8.043985 4.585429 -2.158190 2.160799 -20.528513 -3.208758 -33.852177 72.740091 -37.752090 7.294288 -12.809529 11.537427 -0.008114 -0.014066 -0.012117 -6.392054 -17.875925 5.773741 86.444792 82.416898 86.337756 1.066818 -21.789401 -18.055239 0.009926 0.006522 -0.007062
-35.507256 57.923149 12.759508 177.812816 -51.196999 -3.535275 2.990465 21.823515 2.905711 1.569426 12.434254 1.496244 2.018610 15.556600 1.934502 1.568177 12.450604 1.484345 -2.195224 16.848636 1.707396 -4.650228 -4.400877 3.915150 1.536534 5.313597 0.199678 -3.915699 -14.195910 -8.844263 -63.650570 -51.376742 117.312079 0.113373 16.568337 -24.669042 -8.514045 3.224457 -0.747912 3.009842 -14.968663 11.175820 100.353149 -66.057742 -136.585951 -9.109879 5.450799 -3.279034 2.150073 -20.473765 -3.224562 -33.865809 72.747561 -37.762493 7.308122 -12.821142 11.529768 -0.011232 -0.012507 -0.012484 -6.405761 -17.820654 5.760095 86.407908 82.419361 86.289065 1.065011 -21.784367 -18.051235 0.011816 0.005889 -0.006207
-35.507896 57.923517 12.761613 177.832493 -51.248613 -3.537413 3.037228 21.791794 2.895773 1.567475 12.461958 1.492539 2.035874 15.561131 1.921292 1.549273 12.476548 1.524852 -2.126200 17.048805 1.819823 -4.581056 -3.996791 4.166884 1.552972 5.288681 0.221221 -3.743619 -14.209530 -8.969815 -63.479436 -51.337782 117.183510 0.167072 16.961761 -24.455858 -8.572284 3.127645 -0.844412 2.879288 -15.098967 11.336143 101.897485 -66.615963 -137.743621 -10.176266 6.234572 -4.388214 2.141882 -20.421528 -3.238218 -33.853711 72.752677 -37.752259 7.313638 -12.825461 11.530770 -0.014831 -0.011627 -0.015144 -6.419084 -17.769883 5.750446 86.399814 82.425311 86.269573 1.062293 -21.782802 -18.047861 0.014669 0.006265 -0.004351
-35.509189 57.922943 12.765553 177.851648 -51.296388 -3.538249 3.064018 21.785749 2.881958 1.580617 12.466328 1.481039 2.039969 15.575721 1.918169 1.571098 12.472386 1.498722 -2.060861 17.267763 2.000649 -4.494044 -3.600744 4.429017 1.548205 5.278470 0.303200 -3.544180 -14.221887 -9.105470 -63.339983 -51.323120 117.072945 0.248709 17.324992 -24.220297 -8.665042 3.055268 -0.887263 2.680718 -15.204547 11.518027 103.379372 -67.159683 -138.827368 -11.262039 6.940521 -5.466384 2.134704 -20.376676 -3.250151 -33.854182 72.756157 -37.757754 7.309146 -12.826276 11.536657 -0.015898 -0.010694 -0.014751 -6.437081 -17.722325 5.745052 86.345569 82.435250 86.193223 1.063489 -21.779658 -18.041487 0.014543 0.012086 -0.000512
-35.510557 57.922384 12.770766 177.870324 -51.344535 -3.542289 3.074778 21.804299 2.869559 1.579348 12.477920 1.481147 2.055204 15.571939 1.901233 1.595160 12.468149 1.457838 -1.982420 17.477247 2.189509 -4.389385 -3.219412 4.702018 1.621752 5.173891 0.336548 -3.408980 -14.143986 -9.199805 -63.267439 -51.346919 116.996996 0.361617 17.676832 -23.993670 -8.761568 2.976349 -0.929804 2.425335 -15.284516 11.715321 104.768682 -67.661395 -139.804820 -12.376432 7.592911 -6.517941 2.129760 -20.329944 -3.259533 -33.854694 72.757199 -37.759847 7.313864 -12.827960 11.536763 -0.020660 -0.009372 -0.013180 -6.450227 -17.675195 5.739650 86.287547 82.434305 86.120323 1.055502 -21.773463 -18.038198 0.021040 0.012626 0.004540
-35.512593 57.922106 12.777023 177.887194 -51.392594 -3.545463 3.089556 21.818523 2.853841 1.575455 12.494393 1.486550 2.074803 15.571634 1.872771 1.604417 12.474927 1.449150 -1.889477 17.668769 2.367050 -4.267331 -2.859396 4.988769 1.667495 5.097538 0.361890 -3.217530 -14.108302 -9.316024 -63.276315 -51.414231 116.965841 0.500278 18.045733 -23.805589 -8.855513 2.879171 -0.989245 2.129512 -15.335484 11.920101 106.021234 -68.115537 -140.650124 -13.490301 8.189720 -7.549309 2.126201 -20.281649 -3.271381 -33.839119 72.758093 -37.744373 7.318949 -12.828508 11.536815 -0.026431 -0.007642 -0.013173 -6.460646 -17.629756 5.733772 86.250004 82.429769 86.067644 1.042215 -21.766700 -18.030278 0.026819 0.011871 0.005404
-35.518025 57.921243 12.784660 177.891125 -51.432935 -3.522861 3.107799 21.821407 2.815948 1.583108 12.505282 1.483008 2.088629 15.582998 1.852109 1.604965 12.484585 1.469985 -1.787399 17.847629 2.537455 -4.127599 -2.525050 5.288871 1.700670 5.037260 0.375843 -2.996173 -14.092837 -9.442725 -63.346563 -51.526265 116.966895 0.663644 18.429970 -23.651115 -8.949812 2.770670 -1.063930 1.805954 -15.353384 12.126273 107.156588 -68.550357 -141.395954 -14.536654 8.702585 -8.534947 2.137005 -20.240599 -3.293229 -33.778792 72.748860 -37.696988 7.331572 -12.807789 11.552119 -0.035563 -0.017578 -0.019468 -6.460208 -17.596365 5.712759 86.144708 82.412022 85.938228 1.009444 -21.759118 -18.019280 0.038506 0.020216 0.013659
